<?xml version="1.0" encoding="UTF-8" standalone="no"?><svg xmlns="http://www.w3.org/2000/svg" xmlns:xlink="http://www.w3.org/1999/xlink" contentScriptType="application/ecmascript" contentStyleType="text/css" height="232px" preserveAspectRatio="none" style="width:1263px;height:232px;" version="1.1" viewBox="0 0 1263 232" width="1263px" zoomAndPan="magnify"><defs><filter height="300%" id="fr2upsu" width="300%" x="-1" y="-1"><feGaussianBlur result="blurOut" stdDeviation="2.0"/><feColorMatrix in="blurOut" result="blurOut2" type="matrix" values="0 0 0 0 0 0 0 0 0 0 0 0 0 0 0 0 0 0 .4 0"/><feOffset dx="4.0" dy="4.0" in="blurOut2" result="blurOut3"/><feBlend in="SourceGraphic" in2="blurOut3" mode="normal"/></filter></defs><g><text fill="#000000" font-family="sans-serif" font-size="18" lengthAdjust="spacingAndGlyphs" textLength="186" x="543.5" y="16.708">"Interpreter Pattern"</text><!--class Context--><rect fill="#FEFECE" filter="url(#fr2upsu)" height="73.6094" style="stroke: #A80036; stroke-width: 1.5;" width="255" x="225" y="28.9531"/><ellipse cx="324.25" cy="44.9531" fill="#ADD1B2" rx="11" ry="11" style="stroke: #A80036; stroke-width: 1.0;"/><path d="M326.5938,40.625 L326.7656,40.7031 C326.9844,40.3906 327.1875,40.2969 327.4844,40.2969 C327.7813,40.2969 328.0625,40.4375 328.2188,40.7031 C328.3125,40.8594 328.3281,40.9844 328.3281,41.4219 L328.3281,42.8438 C328.3281,43.2656 328.2969,43.4531 328.1875,43.6094 C328.0156,43.8281 327.75,43.9688 327.4844,43.9688 C327.2656,43.9688 327.0313,43.8594 326.8906,43.7188 C326.75,43.5938 326.7188,43.4688 326.6563,43.0625 C326.5625,42.6563 326.3906,42.4375 325.9063,42.1563 C325.4375,41.9063 324.8281,41.75 324.25,41.75 C322.5156,41.75 321.2656,43.0625 321.2656,44.8438 L321.2656,45.9375 C321.2656,47.6406 322.5625,48.7344 324.6094,48.7344 C325.375,48.7344 326.0625,48.6094 326.4844,48.3438 C326.6719,48.25 326.6719,48.25 327.125,47.7656 C327.3125,47.5781 327.5156,47.5 327.7344,47.5 C328.2031,47.5 328.5938,47.8906 328.5938,48.3438 C328.5938,48.7344 328.2656,49.1875 327.6875,49.5938 C326.9375,50.1406 325.7813,50.4375 324.5625,50.4375 C321.6719,50.4375 319.5625,48.5469 319.5625,45.9688 L319.5625,44.8438 C319.5625,42.125 321.5625,40.0469 324.1875,40.0469 C325.0625,40.0469 325.6563,40.1875 326.5938,40.625 Z "/><text fill="#000000" font-family="sans-serif" font-size="12" lengthAdjust="spacingAndGlyphs" textLength="48" x="344.75" y="49.1074">Context</text><line style="stroke: #A80036; stroke-width: 1.5;" x1="226" x2="479" y1="60.9531" y2="60.9531"/><line style="stroke: #A80036; stroke-width: 1.5;" x1="226" x2="479" y1="68.9531" y2="68.9531"/><ellipse cx="236" cy="80.8555" fill="#84BE84" rx="3" ry="3" style="stroke: #038048; stroke-width: 1.0;"/><text fill="#000000" font-family="sans-serif" font-size="11" lengthAdjust="spacingAndGlyphs" textLength="229" x="245" y="83.1636">setVariable(String name, Number value)</text><ellipse cx="236" cy="93.6602" fill="#84BE84" rx="3" ry="3" style="stroke: #038048; stroke-width: 1.0;"/><text fill="#000000" font-family="sans-serif" font-size="11" lengthAdjust="spacingAndGlyphs" textLength="191" x="245" y="95.9683">Number getVariable(String name)</text><!--class Expression--><rect fill="#FEFECE" filter="url(#fr2upsu)" height="69.6094" style="stroke: #A80036; stroke-width: 1.5;" width="219" x="515" y="30.9531"/><ellipse cx="586.75" cy="46.9531" fill="#B4A7E5" rx="11" ry="11" style="stroke: #A80036; stroke-width: 1.0;"/><path d="M587.7031,43.7344 L587.7031,50.25 L589.4219,50.25 C589.875,50.25 590.0156,50.2813 590.1875,50.4063 C590.4219,50.5781 590.5313,50.8281 590.5313,51.1094 C590.5313,51.6719 590.1719,51.9531 589.4219,51.9531 L584.2813,51.9531 C583.875,51.9531 583.6719,51.9063 583.5156,51.7813 C583.2969,51.625 583.1563,51.3594 583.1563,51.1094 C583.1563,50.8125 583.3125,50.5313 583.5625,50.375 C583.7188,50.2656 583.8438,50.25 584.2813,50.25 L586,50.25 L586,43.7344 L584.2813,43.7344 C583.8594,43.7344 583.6719,43.7031 583.5156,43.5938 C583.2969,43.4219 583.1563,43.1719 583.1563,42.8906 C583.1563,42.6094 583.3125,42.3125 583.5625,42.1563 C583.7188,42.0625 583.8438,42.0469 584.2813,42.0469 L589.4219,42.0469 C589.875,42.0469 590.0156,42.0781 590.1875,42.1875 C590.4219,42.3594 590.5313,42.625 590.5313,42.8906 C590.5313,43.1875 590.3906,43.4688 590.125,43.625 C590,43.7031 589.8125,43.7344 589.4219,43.7344 Z "/><text fill="#000000" font-family="sans-serif" font-size="12" font-style="italic" lengthAdjust="spacingAndGlyphs" textLength="67" x="607.25" y="51.1074">Expression</text><line style="stroke: #A80036; stroke-width: 1.5;" x1="516" x2="733" y1="62.9531" y2="62.9531"/><ellipse cx="526" cy="91.6602" fill="#84BE84" rx="3" ry="3" style="stroke: #038048; stroke-width: 1.0;"/><text fill="#000000" font-family="sans-serif" font-size="11" lengthAdjust="spacingAndGlyphs" textLength="193" x="535" y="93.9683">Number evaluate(Context context)</text><line style="stroke: #A80036; stroke-width: 1.0;" x1="516" x2="599.5" y1="77.3555" y2="77.3555"/><text fill="#000000" font-family="sans-serif" font-size="11" lengthAdjust="spacingAndGlyphs" textLength="50" x="599.5" y="80.6636">methods</text><line style="stroke: #A80036; stroke-width: 1.0;" x1="649.5" x2="733" y1="77.3555" y2="77.3555"/><!--class TerminalExpression_Number--><rect fill="#FEFECE" filter="url(#fr2upsu)" height="60.8047" style="stroke: #A80036; stroke-width: 1.5;" width="219" x="6" y="162.9531"/><ellipse cx="25.95" cy="178.9531" fill="#ADD1B2" rx="11" ry="11" style="stroke: #A80036; stroke-width: 1.0;"/><path d="M28.2938,174.625 L28.4656,174.7031 C28.6844,174.3906 28.8875,174.2969 29.1844,174.2969 C29.4813,174.2969 29.7625,174.4375 29.9188,174.7031 C30.0125,174.8594 30.0281,174.9844 30.0281,175.4219 L30.0281,176.8438 C30.0281,177.2656 29.9969,177.4531 29.8875,177.6094 C29.7156,177.8281 29.45,177.9688 29.1844,177.9688 C28.9656,177.9688 28.7313,177.8594 28.5906,177.7188 C28.45,177.5938 28.4188,177.4688 28.3563,177.0625 C28.2625,176.6563 28.0906,176.4375 27.6063,176.1563 C27.1375,175.9063 26.5281,175.75 25.95,175.75 C24.2156,175.75 22.9656,177.0625 22.9656,178.8438 L22.9656,179.9375 C22.9656,181.6406 24.2625,182.7344 26.3094,182.7344 C27.075,182.7344 27.7625,182.6094 28.1844,182.3438 C28.3719,182.25 28.3719,182.25 28.825,181.7656 C29.0125,181.5781 29.2156,181.5 29.4344,181.5 C29.9031,181.5 30.2938,181.8906 30.2938,182.3438 C30.2938,182.7344 29.9656,183.1875 29.3875,183.5938 C28.6375,184.1406 27.4813,184.4375 26.2625,184.4375 C23.3719,184.4375 21.2625,182.5469 21.2625,179.9688 L21.2625,178.8438 C21.2625,176.125 23.2625,174.0469 25.8875,174.0469 C26.7625,174.0469 27.3563,174.1875 28.2938,174.625 Z "/><text fill="#000000" font-family="sans-serif" font-size="12" lengthAdjust="spacingAndGlyphs" textLength="176" x="41.05" y="183.1074">TerminalExpression_Number</text><line style="stroke: #A80036; stroke-width: 1.5;" x1="7" x2="224" y1="194.9531" y2="194.9531"/><line style="stroke: #A80036; stroke-width: 1.5;" x1="7" x2="224" y1="202.9531" y2="202.9531"/><ellipse cx="17" cy="214.8555" fill="#84BE84" rx="3" ry="3" style="stroke: #038048; stroke-width: 1.0;"/><text fill="#000000" font-family="sans-serif" font-size="11" lengthAdjust="spacingAndGlyphs" textLength="193" x="26" y="217.1636">Number evaluate(Context context)</text><!--class TerminalExpression_Variable--><rect fill="#FEFECE" filter="url(#fr2upsu)" height="60.8047" style="stroke: #A80036; stroke-width: 1.5;" width="219" x="260" y="162.9531"/><ellipse cx="279.05" cy="178.9531" fill="#ADD1B2" rx="11" ry="11" style="stroke: #A80036; stroke-width: 1.0;"/><path d="M281.3938,174.625 L281.5656,174.7031 C281.7844,174.3906 281.9875,174.2969 282.2844,174.2969 C282.5813,174.2969 282.8625,174.4375 283.0188,174.7031 C283.1125,174.8594 283.1281,174.9844 283.1281,175.4219 L283.1281,176.8438 C283.1281,177.2656 283.0969,177.4531 282.9875,177.6094 C282.8156,177.8281 282.55,177.9688 282.2844,177.9688 C282.0656,177.9688 281.8313,177.8594 281.6906,177.7188 C281.55,177.5938 281.5188,177.4688 281.4563,177.0625 C281.3625,176.6563 281.1906,176.4375 280.7063,176.1563 C280.2375,175.9063 279.6281,175.75 279.05,175.75 C277.3156,175.75 276.0656,177.0625 276.0656,178.8438 L276.0656,179.9375 C276.0656,181.6406 277.3625,182.7344 279.4094,182.7344 C280.175,182.7344 280.8625,182.6094 281.2844,182.3438 C281.4719,182.25 281.4719,182.25 281.925,181.7656 C282.1125,181.5781 282.3156,181.5 282.5344,181.5 C283.0031,181.5 283.3938,181.8906 283.3938,182.3438 C283.3938,182.7344 283.0656,183.1875 282.4875,183.5938 C281.7375,184.1406 280.5813,184.4375 279.3625,184.4375 C276.4719,184.4375 274.3625,182.5469 274.3625,179.9688 L274.3625,178.8438 C274.3625,176.125 276.3625,174.0469 278.9875,174.0469 C279.8625,174.0469 280.4563,174.1875 281.3938,174.625 Z "/><text fill="#000000" font-family="sans-serif" font-size="12" lengthAdjust="spacingAndGlyphs" textLength="178" x="293.95" y="183.1074">TerminalExpression_Variable</text><line style="stroke: #A80036; stroke-width: 1.5;" x1="261" x2="478" y1="194.9531" y2="194.9531"/><line style="stroke: #A80036; stroke-width: 1.5;" x1="261" x2="478" y1="202.9531" y2="202.9531"/><ellipse cx="271" cy="214.8555" fill="#84BE84" rx="3" ry="3" style="stroke: #038048; stroke-width: 1.0;"/><text fill="#000000" font-family="sans-serif" font-size="11" lengthAdjust="spacingAndGlyphs" textLength="193" x="280" y="217.1636">Number evaluate(Context context)</text><!--class NonTerminalExpression_Minus--><rect fill="#FEFECE" filter="url(#fr2upsu)" height="60.8047" style="stroke: #A80036; stroke-width: 1.5;" width="220" x="514.5" y="162.9531"/><ellipse cx="529.5" cy="178.9531" fill="#ADD1B2" rx="11" ry="11" style="stroke: #A80036; stroke-width: 1.0;"/><path d="M531.8438,174.625 L532.0156,174.7031 C532.2344,174.3906 532.4375,174.2969 532.7344,174.2969 C533.0313,174.2969 533.3125,174.4375 533.4688,174.7031 C533.5625,174.8594 533.5781,174.9844 533.5781,175.4219 L533.5781,176.8438 C533.5781,177.2656 533.5469,177.4531 533.4375,177.6094 C533.2656,177.8281 533,177.9688 532.7344,177.9688 C532.5156,177.9688 532.2813,177.8594 532.1406,177.7188 C532,177.5938 531.9688,177.4688 531.9063,177.0625 C531.8125,176.6563 531.6406,176.4375 531.1563,176.1563 C530.6875,175.9063 530.0781,175.75 529.5,175.75 C527.7656,175.75 526.5156,177.0625 526.5156,178.8438 L526.5156,179.9375 C526.5156,181.6406 527.8125,182.7344 529.8594,182.7344 C530.625,182.7344 531.3125,182.6094 531.7344,182.3438 C531.9219,182.25 531.9219,182.25 532.375,181.7656 C532.5625,181.5781 532.7656,181.5 532.9844,181.5 C533.4531,181.5 533.8438,181.8906 533.8438,182.3438 C533.8438,182.7344 533.5156,183.1875 532.9375,183.5938 C532.1875,184.1406 531.0313,184.4375 529.8125,184.4375 C526.9219,184.4375 524.8125,182.5469 524.8125,179.9688 L524.8125,178.8438 C524.8125,176.125 526.8125,174.0469 529.4375,174.0469 C530.3125,174.0469 530.9063,174.1875 531.8438,174.625 Z "/><text fill="#000000" font-family="sans-serif" font-size="12" lengthAdjust="spacingAndGlyphs" textLength="188" x="543.5" y="183.1074">NonTerminalExpression_Minus</text><line style="stroke: #A80036; stroke-width: 1.5;" x1="515.5" x2="733.5" y1="194.9531" y2="194.9531"/><line style="stroke: #A80036; stroke-width: 1.5;" x1="515.5" x2="733.5" y1="202.9531" y2="202.9531"/><ellipse cx="525.5" cy="214.8555" fill="#84BE84" rx="3" ry="3" style="stroke: #038048; stroke-width: 1.0;"/><text fill="#000000" font-family="sans-serif" font-size="11" lengthAdjust="spacingAndGlyphs" textLength="193" x="534.5" y="217.1636">Number evaluate(Context context)</text><!--class NonTerminalExpression_Plus--><rect fill="#FEFECE" filter="url(#fr2upsu)" height="60.8047" style="stroke: #A80036; stroke-width: 1.5;" width="219" x="770" y="162.9531"/><ellipse cx="789.05" cy="178.9531" fill="#ADD1B2" rx="11" ry="11" style="stroke: #A80036; stroke-width: 1.0;"/><path d="M791.3938,174.625 L791.5656,174.7031 C791.7844,174.3906 791.9875,174.2969 792.2844,174.2969 C792.5813,174.2969 792.8625,174.4375 793.0188,174.7031 C793.1125,174.8594 793.1281,174.9844 793.1281,175.4219 L793.1281,176.8438 C793.1281,177.2656 793.0969,177.4531 792.9875,177.6094 C792.8156,177.8281 792.55,177.9688 792.2844,177.9688 C792.0656,177.9688 791.8313,177.8594 791.6906,177.7188 C791.55,177.5938 791.5188,177.4688 791.4563,177.0625 C791.3625,176.6563 791.1906,176.4375 790.7063,176.1563 C790.2375,175.9063 789.6281,175.75 789.05,175.75 C787.3156,175.75 786.0656,177.0625 786.0656,178.8438 L786.0656,179.9375 C786.0656,181.6406 787.3625,182.7344 789.4094,182.7344 C790.175,182.7344 790.8625,182.6094 791.2844,182.3438 C791.4719,182.25 791.4719,182.25 791.925,181.7656 C792.1125,181.5781 792.3156,181.5 792.5344,181.5 C793.0031,181.5 793.3938,181.8906 793.3938,182.3438 C793.3938,182.7344 793.0656,183.1875 792.4875,183.5938 C791.7375,184.1406 790.5813,184.4375 789.3625,184.4375 C786.4719,184.4375 784.3625,182.5469 784.3625,179.9688 L784.3625,178.8438 C784.3625,176.125 786.3625,174.0469 788.9875,174.0469 C789.8625,174.0469 790.4563,174.1875 791.3938,174.625 Z "/><text fill="#000000" font-family="sans-serif" font-size="12" lengthAdjust="spacingAndGlyphs" textLength="178" x="803.95" y="183.1074">NonTerminalExpression_Plus</text><line style="stroke: #A80036; stroke-width: 1.5;" x1="771" x2="988" y1="194.9531" y2="194.9531"/><line style="stroke: #A80036; stroke-width: 1.5;" x1="771" x2="988" y1="202.9531" y2="202.9531"/><ellipse cx="781" cy="214.8555" fill="#84BE84" rx="3" ry="3" style="stroke: #038048; stroke-width: 1.0;"/><text fill="#000000" font-family="sans-serif" font-size="11" lengthAdjust="spacingAndGlyphs" textLength="193" x="790" y="217.1636">Number evaluate(Context context)</text><!--class NonTerminalExpression_Multiply--><rect fill="#FEFECE" filter="url(#fr2upsu)" height="60.8047" style="stroke: #A80036; stroke-width: 1.5;" width="230" x="1024.5" y="162.9531"/><ellipse cx="1039.5" cy="178.9531" fill="#ADD1B2" rx="11" ry="11" style="stroke: #A80036; stroke-width: 1.0;"/><path d="M1041.8438,174.625 L1042.0156,174.7031 C1042.2344,174.3906 1042.4375,174.2969 1042.7344,174.2969 C1043.0313,174.2969 1043.3125,174.4375 1043.4688,174.7031 C1043.5625,174.8594 1043.5781,174.9844 1043.5781,175.4219 L1043.5781,176.8438 C1043.5781,177.2656 1043.5469,177.4531 1043.4375,177.6094 C1043.2656,177.8281 1043,177.9688 1042.7344,177.9688 C1042.5156,177.9688 1042.2813,177.8594 1042.1406,177.7188 C1042,177.5938 1041.9688,177.4688 1041.9063,177.0625 C1041.8125,176.6563 1041.6406,176.4375 1041.1563,176.1563 C1040.6875,175.9063 1040.0781,175.75 1039.5,175.75 C1037.7656,175.75 1036.5156,177.0625 1036.5156,178.8438 L1036.5156,179.9375 C1036.5156,181.6406 1037.8125,182.7344 1039.8594,182.7344 C1040.625,182.7344 1041.3125,182.6094 1041.7344,182.3438 C1041.9219,182.25 1041.9219,182.25 1042.375,181.7656 C1042.5625,181.5781 1042.7656,181.5 1042.9844,181.5 C1043.4531,181.5 1043.8438,181.8906 1043.8438,182.3438 C1043.8438,182.7344 1043.5156,183.1875 1042.9375,183.5938 C1042.1875,184.1406 1041.0313,184.4375 1039.8125,184.4375 C1036.9219,184.4375 1034.8125,182.5469 1034.8125,179.9688 L1034.8125,178.8438 C1034.8125,176.125 1036.8125,174.0469 1039.4375,174.0469 C1040.3125,174.0469 1040.9063,174.1875 1041.8438,174.625 Z "/><text fill="#000000" font-family="sans-serif" font-size="12" lengthAdjust="spacingAndGlyphs" textLength="198" x="1053.5" y="183.1074">NonTerminalExpression_Multiply</text><line style="stroke: #A80036; stroke-width: 1.5;" x1="1025.5" x2="1253.5" y1="194.9531" y2="194.9531"/><line style="stroke: #A80036; stroke-width: 1.5;" x1="1025.5" x2="1253.5" y1="202.9531" y2="202.9531"/><ellipse cx="1035.5" cy="214.8555" fill="#84BE84" rx="3" ry="3" style="stroke: #038048; stroke-width: 1.0;"/><text fill="#000000" font-family="sans-serif" font-size="11" lengthAdjust="spacingAndGlyphs" textLength="193" x="1044.5" y="217.1636">Number evaluate(Context context)</text><path d="M495.166,103.2911 C442.531,116.1341 318.141,145.1994 225.291,166.8604 " fill="none" style="stroke: #A80036; stroke-width: 1.0; stroke-dasharray: 7.0,7.0;"/><polygon fill="none" points="493.689,96.4451,514.789,98.3921,497.08,110.0281,493.689,96.4451" style="stroke: #A80036; stroke-width: 1.0;"/><path d="M537.136,109.9501 C501.746,127.3671 461.763,147.0451 429.723,162.8138 " fill="none" style="stroke: #A80036; stroke-width: 1.0; stroke-dasharray: 7.0,7.0;"/><polygon fill="none" points="534.121,103.6321,555.157,101.0811,540.304,116.1931,534.121,103.6321" style="stroke: #A80036; stroke-width: 1.0;"/><path d="M624.5,121.3711 C624.5,135.6318 624.5,150.4772 624.5,162.8901 " fill="none" style="stroke: #A80036; stroke-width: 1.0; stroke-dasharray: 7.0,7.0;"/><polygon fill="none" points="617.5,121.2461,624.5,101.2461,631.5,121.2461,617.5,121.2461" style="stroke: #A80036; stroke-width: 1.0;"/><path d="M711.864,109.9501 C747.254,127.3671 787.237,147.0451 819.277,162.8138 " fill="none" style="stroke: #A80036; stroke-width: 1.0; stroke-dasharray: 7.0,7.0;"/><polygon fill="none" points="708.696,116.1931,693.843,101.0811,714.879,103.6321,708.696,116.1931" style="stroke: #A80036; stroke-width: 1.0;"/><path d="M753.554,98.4021 C836.755,118.6771 944.007,144.8135 1024.32,164.386 " fill="none" style="stroke: #A80036; stroke-width: 1.0; stroke-dasharray: 7.0,7.0;"/><polygon fill="none" points="751.807,105.1811,734.033,93.6451,755.122,91.5791,751.807,105.1811" style="stroke: #A80036; stroke-width: 1.0;"/></g></svg>